<svg width="67" height="12" viewBox="0 0 67 12" fill="none" xmlns="http://www.w3.org/2000/svg">
<path opacity="0.35" d="M43.0509 2.6829C43.0509 1.48021 44.0259 0.505237 45.2286 0.505237H61.9799C63.1825 0.505237 64.1575 1.48021 64.1575 2.6829V8.71336C64.1575 9.91605 63.1825 10.891 61.9799 10.891H45.2286C44.0259 10.891 43.0509 9.91605 43.0509 8.71336V2.6829Z" stroke="black"/>
<path opacity="0.4" d="M65.6651 3.68798V7.70829C66.4739 7.36779 66.9999 6.5757 66.9999 5.69814C66.9999 4.82057 66.4739 4.02848 65.6651 3.68798Z" fill="black"/>
<path d="M44.5585 3.35295C44.5585 2.61284 45.1585 2.01285 45.8986 2.01285H61.3098C62.0499 2.01285 62.6499 2.61284 62.6499 3.35295V8.04331C62.6499 8.78342 62.0499 9.38341 61.3098 9.38341H45.8986C45.1585 9.38341 44.5585 8.78343 44.5585 8.04331V3.35295Z" fill="black"/>
<path fill-rule="evenodd" clip-rule="evenodd" d="M29.814 2.28889C32.0412 2.28898 34.1832 3.14474 35.7973 4.67929C35.9188 4.79777 36.1131 4.79627 36.2328 4.67594L37.3947 3.50335C37.4553 3.44232 37.4891 3.35965 37.4886 3.27364C37.4881 3.18762 37.4533 3.10536 37.392 3.04504C33.1555 -1.01501 26.4719 -1.01501 22.2354 3.04504C22.1741 3.10531 22.1392 3.18756 22.1387 3.27357C22.1381 3.35958 22.1718 3.44228 22.2324 3.50335L23.3946 4.67594C23.5142 4.79645 23.7087 4.79795 23.8301 4.67929C25.4445 3.14464 27.5867 2.28888 29.814 2.28889ZM29.814 6.10382C31.0377 6.10375 32.2177 6.55858 33.1248 7.37993C33.2474 7.4965 33.4407 7.49397 33.5603 7.37424L34.7208 6.20165C34.7819 6.14014 34.8158 6.0567 34.815 5.97C34.8141 5.8833 34.7785 5.80057 34.7161 5.74032C31.954 3.17096 27.6764 3.17096 24.9143 5.74032C24.8519 5.80057 24.8163 5.88334 24.8155 5.97007C24.8147 6.0568 24.8487 6.14023 24.9099 6.20165L26.0701 7.37424C26.1897 7.49397 26.383 7.4965 26.5057 7.37993C27.4121 6.55912 28.5912 6.10433 29.814 6.10382ZM32.1388 8.6706C32.1405 8.75755 32.1064 8.84137 32.0443 8.90229L30.0368 10.9282C29.978 10.9877 29.8977 11.0212 29.814 11.0212C29.7303 11.0212 29.6501 10.9877 29.5912 10.9282L27.5834 8.90229C27.5214 8.84133 27.4873 8.75748 27.4891 8.67053C27.491 8.58358 27.5286 8.50125 27.5932 8.44297C28.8752 7.35861 30.7529 7.35861 32.0349 8.44297C32.0994 8.5013 32.137 8.58366 32.1388 8.6706Z" fill="black"/>
<path fill-rule="evenodd" clip-rule="evenodd" d="M16.0812 0.337643H15.0761C14.5211 0.337643 14.0711 0.787631 14.0711 1.34272V10.0534C14.0711 10.6085 14.5211 11.0585 15.0761 11.0585H16.0812C16.6363 11.0585 17.0863 10.6085 17.0863 10.0534V1.34272C17.0863 0.787631 16.6363 0.337643 16.0812 0.337643ZM10.3858 2.68282H11.3909C11.946 2.68282 12.3959 3.13281 12.3959 3.6879V10.0534C12.3959 10.6085 11.946 11.0585 11.3909 11.0585H10.3858C9.8307 11.0585 9.38071 10.6085 9.38071 10.0534V3.6879C9.38071 3.13281 9.8307 2.68282 10.3858 2.68282ZM6.70051 5.028H5.69543C5.14034 5.028 4.69035 5.47799 4.69035 6.03307V10.0534C4.69035 10.6085 5.14034 11.0585 5.69543 11.0585H6.70051C7.2556 11.0585 7.70558 10.6085 7.70558 10.0534V6.03307C7.70558 5.47799 7.2556 5.028 6.70051 5.028ZM2.01015 7.03815H1.00508C0.449988 7.03815 0 7.48814 0 8.04323V10.0534C0 10.6085 0.449988 11.0585 1.00508 11.0585H2.01015C2.56524 11.0585 3.01523 10.6085 3.01523 10.0534V8.04323C3.01523 7.48814 2.56524 7.03815 2.01015 7.03815Z" fill="black"/>
</svg>
